<svg width="30" height="13" viewBox="0 0 30 13" fill="none" xmlns="http://www.w3.org/2000/svg">
<path d="M5.65517 1.74488C6.00291 1.30994 6.23888 0.725933 6.17664 0.12915C5.6676 0.154462 5.04642 0.464982 4.68678 0.90027C4.36386 1.27303 4.07806 1.88148 4.15257 2.45325C4.72399 2.50282 5.29489 2.16763 5.65517 1.74488Z" fill="white"/>
<path d="M6.17142 2.56483C5.34157 2.5154 4.636 3.03581 4.2397 3.03581C3.84319 3.03581 3.23634 2.58974 2.57997 2.60177C1.72567 2.61431 0.93298 3.09734 0.499459 3.86558C-0.39222 5.40244 0.264145 7.68215 1.13126 8.93383C1.55234 9.55308 2.05983 10.2349 2.72851 10.2104C3.36031 10.1856 3.60795 9.80133 4.37593 9.80133C5.14334 9.80133 5.36641 10.2104 6.0352 10.198C6.72876 10.1856 7.16236 9.57848 7.58344 8.95863C8.06651 8.25271 8.26426 7.5711 8.2767 7.53368C8.26426 7.52129 6.93932 7.01301 6.92704 5.48892C6.91453 4.21278 7.96726 3.60578 8.0168 3.56813C7.42232 2.68888 6.49344 2.58974 6.17142 2.56483Z" fill="white"/>
<path d="M13.3952 0.837893C15.1989 0.837893 16.4548 2.08117 16.4548 3.89129C16.4548 5.70787 15.173 6.95761 13.35 6.95761H11.353V10.1334H9.91016V0.837891H13.3952V0.837893ZM11.353 5.74652H13.0085C14.2647 5.74652 14.9797 5.07021 14.9797 3.89775C14.9797 2.72542 14.2647 2.05545 13.015 2.05545H11.353V5.74652Z" fill="white"/>
<path d="M16.832 8.20749C16.832 7.02211 17.7403 6.29424 19.3509 6.20403L21.206 6.09456V5.57282C21.206 4.8191 20.697 4.36819 19.8469 4.36819C19.0415 4.36819 18.539 4.75461 18.4168 5.36022H17.1027C17.1799 4.1362 18.2234 3.23438 19.8983 3.23438C21.541 3.23438 22.5909 4.10402 22.5909 5.46323V10.1335H21.2574V9.01911H21.2254C20.8325 9.77283 19.9756 10.2495 19.0867 10.2495C17.7597 10.2495 16.832 9.42492 16.832 8.20749ZM21.206 7.59554V7.06088L19.5375 7.16389C18.7065 7.22191 18.2363 7.58908 18.2363 8.16885C18.2363 8.76141 18.7259 9.14796 19.4732 9.14796C20.4458 9.14796 21.206 8.47799 21.206 7.59554Z" fill="white"/>
<path d="M23.8497 12.6265V11.4991C23.9525 11.5249 24.1844 11.5249 24.3005 11.5249C24.9446 11.5249 25.2925 11.2544 25.505 10.5587C25.505 10.5457 25.6275 10.1464 25.6275 10.1399L23.1797 3.35669H24.6869L26.4006 8.87092H26.4262L28.1399 3.35669H29.6086L27.0703 10.4877C26.4908 12.1305 25.8208 12.6587 24.4165 12.6587C24.3005 12.6587 23.9525 12.6457 23.8497 12.6265Z" fill="white"/>
</svg>
