<svg width="31" height="13" viewBox="0 0 31 13" fill="none" xmlns="http://www.w3.org/2000/svg">
<g clip-path="url(#clip0)">
<path d="M14.862 6.36251V9.88009H13.7461V1.19321H16.7057C17.059 1.18583 17.4102 1.24849 17.7392 1.37756C18.0681 1.50664 18.3682 1.69958 18.6222 1.94525C18.8787 2.176 19.0829 2.459 19.221 2.77521C19.3591 3.09143 19.4279 3.43354 19.4228 3.77855C19.4301 4.12541 19.3624 4.46975 19.2242 4.78798C19.086 5.10622 18.8807 5.39081 18.6222 5.62225C18.1047 6.11575 17.4658 6.36227 16.7057 6.36181H14.862V6.36251ZM14.862 2.2627V5.2951H16.7334C16.9386 5.30118 17.1428 5.26437 17.3329 5.18704C17.523 5.1097 17.6949 4.99353 17.8376 4.84596C17.9795 4.70798 18.0923 4.54295 18.1693 4.36062C18.2464 4.1783 18.2861 3.98237 18.2861 3.78444C18.2861 3.58651 18.2464 3.39059 18.1693 3.20826C18.0923 3.02593 17.9795 2.8609 17.8376 2.72293C17.6967 2.57225 17.5254 2.45323 17.3351 2.37377C17.1447 2.2943 16.9396 2.25621 16.7334 2.262H14.862V2.2627Z" fill="white"/>
<path d="M21.9945 3.74243C22.8193 3.74243 23.4704 3.96284 23.9477 4.40367C24.425 4.84449 24.6635 5.4489 24.663 6.21687V9.88002H23.5956V9.0552H23.5471C23.085 9.73446 22.4704 10.0741 21.7034 10.0741C21.0486 10.0741 20.5008 9.88002 20.06 9.49187C19.8484 9.31372 19.6793 9.09061 19.5649 8.83881C19.4505 8.587 19.3937 8.31284 19.3987 8.03631C19.3987 7.42129 19.6312 6.93217 20.096 6.56898C20.5609 6.20578 21.1814 6.02372 21.9577 6.0228C22.6204 6.0228 23.1661 6.1441 23.5949 6.38669V6.13162C23.5962 5.9431 23.5554 5.75667 23.4757 5.58583C23.396 5.415 23.2793 5.26404 23.134 5.14392C22.8389 4.87768 22.4543 4.73241 22.0569 4.73706C21.4335 4.73706 20.9402 4.99998 20.577 5.52583L19.5942 4.90687C20.1348 4.13058 20.9349 3.74243 21.9945 3.74243ZM20.5507 8.06057C20.55 8.2026 20.5832 8.34274 20.6475 8.46933C20.7119 8.59593 20.8056 8.7053 20.9208 8.78835C21.1676 8.98249 21.474 9.08534 21.7879 9.07946C22.2588 9.07867 22.7102 8.89124 23.0432 8.55823C23.4128 8.21029 23.5977 7.80204 23.5977 7.33349C23.2497 7.05624 22.7645 6.91762 22.1421 6.91762C21.6888 6.91762 21.3108 7.0269 21.0082 7.24546C20.7025 7.46726 20.5507 7.73689 20.5507 8.06057Z" fill="white"/>
<path d="M30.7894 3.93652L27.0631 12.5H25.9112L27.2939 9.50367L24.8438 3.93652H26.0567L27.8276 8.20615H27.8519L29.5743 3.93652H30.7894Z" fill="white"/>
<path d="M10.3547 5.60408C10.3552 5.26401 10.3264 4.92452 10.2688 4.58936H5.5625V6.51138H8.25804C8.20289 6.81835 8.08614 7.11098 7.91484 7.37162C7.74354 7.63226 7.52124 7.85552 7.26134 8.02793V9.27555H8.87007C9.81202 8.40706 10.3547 7.12271 10.3547 5.60408Z" fill="#4285F4"/>
<path d="M5.56041 10.4809C6.90714 10.4809 8.04109 10.0387 8.86798 9.27626L7.25925 8.02864C6.81149 8.33223 6.23482 8.50551 5.56041 8.50551C4.25873 8.50551 3.15389 7.62802 2.75881 6.44556H1.10156V7.7313C1.51693 8.55783 2.15384 9.25265 2.9412 9.73818C3.72856 10.2237 4.63538 10.4809 5.56041 10.4809Z" fill="#34A853"/>
<path d="M2.75896 6.44549C2.5501 5.82587 2.5501 5.15487 2.75896 4.53525V3.24951H1.10171C0.75229 3.94482 0.570312 4.7122 0.570312 5.49037C0.570312 6.26854 0.75229 7.03592 1.10171 7.73123L2.75896 6.44549Z" fill="#FBBC04"/>
<path d="M5.56041 2.47548C6.2721 2.46385 6.95978 2.73275 7.47481 3.22405L8.89917 1.79968C7.99598 0.951357 6.79944 0.485612 5.56041 0.500083C4.63538 0.500125 3.72856 0.757269 2.9412 1.24281C2.15384 1.72834 1.51693 2.42316 1.10156 3.24969L2.75881 4.53543C3.15389 3.35297 4.25873 2.47548 5.56041 2.47548Z" fill="#EA4335"/>
</g>
<defs>
<clipPath id="clip0">
<rect width="30.218" height="12" fill="white" transform="translate(0.570312 0.5)"/>
</clipPath>
</defs>
</svg>
