<svg width="26" height="16" viewBox="0 0 26 16" fill="none" xmlns="http://www.w3.org/2000/svg">
<g clip-path="url(#clip0)">
<path d="M16.9639 1.78418H9.36719V14.1919H16.9639V1.78418Z" fill="#FF5F00"/>
<path d="M10.1507 7.98917C10.1498 6.79443 10.4206 5.61511 10.9427 4.54049C11.4648 3.46587 12.2246 2.52409 13.1644 1.78643C12.0004 0.871631 10.6025 0.302771 9.13042 0.144866C7.65838 -0.0130383 6.17162 0.246384 4.84005 0.893484C3.50847 1.54058 2.38582 2.54925 1.60039 3.80421C0.814955 5.05917 0.398438 6.50979 0.398438 7.99027C0.398437 9.47075 0.814955 10.9214 1.60039 12.1763C2.38582 13.4313 3.50847 14.44 4.84005 15.0871C6.17162 15.7342 7.65838 15.9936 9.13042 15.8357C10.6025 15.6778 12.0004 15.1089 13.1644 14.1941C12.2243 13.4562 11.4644 12.5141 10.9422 11.4391C10.4201 10.364 10.1494 9.18429 10.1507 7.98917Z" fill="#EB001B"/>
<path d="M25.1786 12.8789V12.6246H25.2882V12.572H25.0273V12.6246H25.1304V12.8789H25.1786ZM25.6849 12.8789V12.572H25.606L25.5139 12.7912L25.4219 12.572H25.343V12.8789H25.3999V12.6465L25.4854 12.846H25.5446L25.6301 12.6465V12.8789H25.6849Z" fill="#F79E1B"/>
<path d="M25.9312 7.9891C25.9312 9.46969 25.5145 10.9204 24.729 12.1754C23.9434 13.4304 22.8206 14.4391 21.4888 15.0861C20.1571 15.7331 18.6702 15.9923 17.1981 15.8342C15.7259 15.6761 14.328 15.1069 13.1641 14.1918C14.1035 13.4535 14.863 12.5115 15.3853 11.4368C15.9076 10.3621 16.1789 9.18287 16.1789 7.98801C16.1789 6.79314 15.9076 5.61389 15.3853 4.5392C14.863 3.46452 14.1035 2.52249 13.1641 1.78417C14.328 0.869084 15.7259 0.299947 17.1981 0.141815C18.6702 -0.0163158 20.1571 0.24294 21.4888 0.889948C22.8206 1.53696 23.9434 2.54561 24.729 3.80061C25.5145 5.05561 25.9312 6.50632 25.9312 7.98691V7.9891Z" fill="#F79E1B"/>
</g>
<defs>
<clipPath id="clip0">
<rect width="25.6438" height="16" fill="white" transform="translate(0.300781)"/>
</clipPath>
</defs>
</svg>
