<svg width="38" height="10" viewBox="0 0 38 10" fill="none" xmlns="http://www.w3.org/2000/svg">
<path fill-rule="evenodd" clip-rule="evenodd" d="M4.30025 0.00170645C4.62777 -0.000252889 5.60114 -0.0879197 6.01344 1.30359C6.29117 2.24093 6.73357 3.77633 7.34066 5.9098H7.5879C8.23894 3.66055 8.68618 2.12515 8.9296 1.30359C9.34619 -0.102415 10.3877 0.001734 10.8043 0.001734L14.0184 0.00173801V9.99998H10.7425V4.10785H10.5228L8.69664 9.99998H6.23192L4.40575 4.10348H4.18608V9.99998H0.910156V0.00173801L4.30025 0.00170645ZM18.7226 0.00173801V5.89826H18.9839L21.2053 1.04959C21.6365 0.0846929 22.5555 0.00173801 22.5555 0.00173801H25.7256V10H22.3813V4.10348H22.1199L19.9421 8.95215C19.5109 9.91268 18.5483 10 18.5483 10H15.3782V0.00173801H18.7226ZM37.2852 4.75298C36.8187 6.07493 35.3537 7.02167 33.7317 7.02167H30.2245V10H27.0442V4.75298H37.2852Z" fill="#0F754E"/>
<path fill-rule="evenodd" clip-rule="evenodd" d="M33.8865 0.00170898H26.8789C27.0457 2.22766 28.9626 4.13322 30.947 4.13322H37.5076C37.8862 2.28319 36.5829 0.00170898 33.8865 0.00170898Z" fill="url(#paint0_linear)"/>
<defs>
<linearGradient id="paint0_linear" x1="37.5719" y1="2.60061" x2="26.8789" y2="2.60061" gradientUnits="userSpaceOnUse">
<stop stop-color="#1F5CD7"/>
<stop offset="1" stop-color="#02AEFF"/>
</linearGradient>
</defs>
</svg>
