<svg width="70" height="8" viewBox="0 0 70 8" fill="none" xmlns="http://www.w3.org/2000/svg">
<g clip-path="url(#clip0)">
<path d="M4.78692 7.21944V2.55727H7.53884V0.860655H0.03125V2.55727H2.7831V7.21944H4.78692ZM10.2779 4.56108V0.860655H8.34078V7.21944H10.0507L13.3904 3.51909V7.21944H15.3274V0.860655H13.6175L10.2779 4.56108ZM21.844 4.85496V7.21944H23.7809V0.860655H21.844V3.18508H18.7314V0.860655H16.7943V7.21944H18.7314V4.85496H21.844ZM29.1754 7.21944C29.6162 7.21944 30.017 7.17939 30.391 7.07249C31.3929 6.79193 32.0475 5.97705 32.0475 4.86829C32.0475 3.81297 31.4865 3.07827 30.5914 2.74425C30.1639 2.58399 29.6563 2.57059 29.1754 2.57059H27.185V0.860655H25.2479V7.21944H29.1754ZM28.8414 4.06681C29.1086 4.06681 29.3625 4.06681 29.5895 4.1469C29.9101 4.25379 30.0971 4.52096 30.0971 4.84157C30.0971 5.17557 29.9101 5.45606 29.6029 5.58967C29.3891 5.68317 29.1754 5.68317 28.8414 5.68317H27.185V4.06681H28.8414ZM35.5206 4.81484L37.8316 7.21944H40.4099L37.1904 3.90646L40.2896 0.860655H37.8584L35.5206 3.25193H34.9862V0.860655H33.0493V7.21944H34.9862V4.81484H35.5206ZM44.3956 0.686988C41.7906 0.686988 40.2276 2.15649 40.2276 4.05341C40.2276 5.95033 41.7906 7.41983 44.3956 7.41983C46.9872 7.41983 48.5501 5.95033 48.5501 4.05341C48.5501 2.15649 46.9872 0.686988 44.3956 0.686988ZM44.3956 5.87023C43.0998 5.87023 42.2715 5.0954 42.2715 4.05341C42.2715 3.01142 43.0998 2.24998 44.3956 2.24998C45.678 2.24998 46.5196 3.01142 46.5196 4.05341C46.5196 5.0954 45.678 5.87023 44.3956 5.87023ZM55.001 0.5H53.064V1.14121C50.6328 1.19466 49.1767 2.22326 49.1767 4.04008C49.1767 5.85684 50.6328 6.80534 53.064 6.85878V7.5H55.001V6.85878C57.4457 6.80534 58.9018 5.85684 58.9018 4.04008C58.9018 2.22326 57.4457 1.19466 55.001 1.14121V0.5ZM53.064 5.49618C51.7282 5.44274 51.1404 4.89501 51.1404 4.04008C51.1404 3.18508 51.7282 2.57059 53.064 2.51714V5.49618ZM55.001 2.51714C56.3503 2.57059 56.9247 3.18508 56.9247 4.04008C56.9247 4.89501 56.3503 5.44274 55.001 5.49618V2.51714ZM65.3462 0.5H63.4092V1.14121C60.978 1.19466 59.5219 2.22326 59.5219 4.04008C59.5219 5.85684 60.978 6.80534 63.4092 6.85878V7.5H65.3462V6.85878C67.791 6.80534 69.2473 5.85684 69.2473 4.04008C69.2473 2.22326 67.791 1.19466 65.3462 1.14121V0.5ZM63.4092 5.49618C62.0734 5.44274 61.4856 4.89501 61.4856 4.04008C61.4856 3.18508 62.0734 2.57059 63.4092 2.51714V5.49618ZM65.3462 2.51714C66.6952 2.57059 67.2703 3.18508 67.2703 4.04008C67.2703 4.89501 66.6952 5.44274 65.3462 5.49618V2.51714Z" fill="white"/>
</g>
<defs>
<clipPath id="clip0">
<rect width="69.3" height="7" fill="white" transform="translate(0 0.5)"/>
</clipPath>
</defs>
</svg>
