<svg width="32" height="10" viewBox="0 0 32 10" fill="none" xmlns="http://www.w3.org/2000/svg">
<path fill-rule="evenodd" clip-rule="evenodd" d="M16.9606 3.19695C16.943 4.58992 18.2021 5.36727 19.1505 5.82945C20.1251 6.30371 20.4524 6.6078 20.4487 7.03182C20.4412 7.68089 19.6713 7.96725 18.9507 7.9784C17.6934 7.99791 16.9625 7.639 16.3813 7.3675L15.9285 9.48665C16.5115 9.75544 17.5911 9.98978 18.7107 10C21.3386 10 23.0579 8.7028 23.0672 6.69149C23.0775 4.13896 19.5365 3.9976 19.5606 2.85662C19.569 2.51072 19.8991 2.14152 20.6226 2.04761C20.9805 2.00023 21.969 1.96392 23.0895 2.47999L23.5293 0.429667C22.9268 0.210188 22.1522 0 21.1879 0C18.7145 0 16.9747 1.31486 16.9606 3.19695ZM27.7557 0.176667C27.2759 0.176667 26.8714 0.456608 26.691 0.886197L22.937 9.84935H25.563L26.0856 8.4052H29.2946L29.5978 9.84935H31.9123L29.8925 0.176667H27.7557ZM28.123 2.78966L28.8808 6.42177H26.8053L28.123 2.78966ZM13.7768 0.176667L11.7069 9.84935H14.2092L16.2781 0.176667H13.7768ZM10.0749 0.176667L7.47028 6.76024L6.41671 1.16234C6.29307 0.537509 5.80488 0.176667 5.26272 0.176667H1.00485L0.945312 0.457537C1.81943 0.647209 2.81254 0.953163 3.41415 1.28048C3.78235 1.48038 3.88748 1.65518 4.00833 2.13037L6.00384 9.84935H8.64849L12.7028 0.176667H10.0749Z" fill="white"/>
</svg>
