<svg width="240" height="44" viewBox="0 0 240 44" fill="none" xmlns="http://www.w3.org/2000/svg">
<path fill-rule="evenodd" clip-rule="evenodd" d="M15.1367 22.2774C9.93139 22.2774 5.71164 17.2905 5.71164 11.1387C5.71164 4.98698 9.93139 0 15.1367 0V22.2774ZM34.2038 2.948V0.564816H40.7384L40.6999 21.706H34.1653V19.4382C32.82 21.091 30.898 22.2057 28.2073 22.2057C22.826 22.2057 18.6747 17.67 18.6747 11.1354C18.6747 4.56243 22.9029 0.0651148 28.1689 0.0651148C30.8596 0.0651148 32.8584 1.21827 34.2038 2.948ZM25.286 11.1354C25.286 14.0952 27.2464 15.9787 29.7449 15.9787C32.2819 15.9787 34.2038 14.0952 34.2038 11.1354C34.2038 8.21409 32.2819 6.29216 29.7449 6.29216C27.208 6.29216 25.286 8.21409 25.286 11.1354ZM57.3078 10.6357L66.8406 21.706H58.5763L51.1191 13.0189V21.706H44.5846V0.564816H51.1191V8.98285L58.0765 0.564816H66.3409L57.3078 10.6357ZM81.9892 0.564816V2.948C80.6439 1.21827 78.6451 0.0651148 75.9544 0.0651148C70.6882 0.0651148 66.46 4.56243 66.46 11.1354C66.46 17.67 70.6114 22.2057 75.9928 22.2057C78.6835 22.2057 80.6054 21.091 81.9508 19.4382V21.706H88.4853L88.5237 0.564816H81.9892ZM77.5303 15.9787C75.0319 15.9787 73.0715 14.0952 73.0715 11.1354C73.0715 8.21409 74.9934 6.29216 77.5303 6.29216C80.0672 6.29216 81.9892 8.21409 81.9892 11.1354C81.9892 14.0952 80.0672 15.9787 77.5303 15.9787ZM114.511 0.564816V15.5558H118.355V21.706H111.82H97.7514H91.2169V15.5558H95.0607C95.5604 15.0561 95.9063 14.172 96.1369 12.7498L98.0973 0.564816H114.511ZM102.633 13.0958C102.479 14.1336 102.21 14.8639 101.864 15.5558H107.976V6.71498H103.671L102.633 13.0958ZM131.812 0.0651148C125.239 0.0651148 120.664 4.86993 120.664 11.1354C120.664 17.4008 125.2 22.2057 131.965 22.2057C136.539 22.2057 140.959 20.0147 142.421 14.7871H135.694C135.194 16.3246 133.734 17.1702 131.965 17.1702C129.698 17.1702 127.621 15.7864 127.314 12.5192H142.728C143.382 5.56182 138.808 0.0651148 131.812 0.0651148ZM131.773 5.10057C134.118 5.10057 135.501 6.52279 135.925 8.56004H127.507C128.045 6.52279 129.428 5.10057 131.773 5.10057ZM158.045 7.06094L162.773 0.564816H170.192V21.706H163.658V15.4021L164.119 8.29097L158.122 16.9781H157.969L151.972 8.29097L152.433 15.4021V21.706H145.899V0.564816H153.317L158.045 7.06094ZM187.352 0.564816L180.241 12.5192L180.587 6.86874V0.564816H174.052V21.706H181.47L188.582 9.67476L188.236 15.4021V21.706H194.77V0.564816H187.352ZM198.679 7.94502C198.679 2.29455 203.137 0.564816 206.673 0.564816H217.898V21.706H211.363V14.7487H209.787L205.443 21.706H197.448L202.945 14.0184C200.6 13.1727 198.679 11.366 198.679 7.94502ZM211.363 6.40747H207.097C205.905 6.40747 205.29 6.98405 205.29 7.8297C205.29 8.82911 205.982 9.40569 207.097 9.40569H211.363V6.40747ZM222.774 21.7061C228.611 21.7061 233.342 16.9749 233.342 11.1386C233.342 5.30231 228.611 0.571077 222.774 0.571076V21.7061ZM234.82 2.03631C237.87 3.88335 239.911 7.26282 239.911 11.1258C239.911 14.9888 237.87 18.3683 234.82 20.2153V2.03631ZM4.28428 1.8014C1.70497 3.78884 0 7.22855 0 11.1389C0 15.0492 1.70497 18.4889 4.28428 20.4763V1.8014ZM111.077 30.7602C111.777 30.7602 112.377 30.5419 112.874 30.1052C113.372 29.6684 113.621 29.0793 113.621 28.3377V27.9264H111.915V28.2769C111.915 28.5308 111.838 28.734 111.686 28.8862C111.534 29.0386 111.33 29.1148 111.077 29.1148C110.823 29.1148 110.62 29.0386 110.467 28.8862C110.315 28.734 110.239 28.5308 110.239 28.2769V27.9264H108.517V28.3377C108.517 29.0793 108.766 29.6684 109.264 30.1052C109.771 30.5419 110.376 30.7602 111.077 30.7602ZM115.084 31.8115H112.585L109.142 37.2354L109.248 34.7824V31.8115H107.07V40.191H109.583L113.042 34.7367L112.905 37.2201V40.191H115.084V31.8115ZM20.4094 39.1246C21.2424 39.9575 22.2834 40.3739 23.5328 40.3739C24.589 40.3739 25.5083 40.0794 26.2903 39.4902C27.0827 38.8909 27.5599 38.0581 27.7225 36.9916H25.4829C25.3611 37.4385 25.1223 37.7788 24.7668 38.0124C24.4114 38.246 23.9999 38.3628 23.5328 38.3628C22.8928 38.3628 22.3697 38.1444 21.9635 37.7077C21.5674 37.2709 21.3743 36.7021 21.3845 36.0013C21.3743 35.3004 21.5674 34.7316 21.9635 34.2949C22.3596 33.8581 22.8878 33.6398 23.5479 33.6398C24.0151 33.6398 24.4214 33.7565 24.7668 33.9902C25.1223 34.2239 25.3611 34.559 25.4829 34.9958H27.7225C27.5702 33.9597 27.0979 33.1421 26.3056 32.5428C25.5235 31.9334 24.6043 31.6287 23.5479 31.6287C22.2885 31.6287 21.2424 32.0451 20.4094 32.8779C19.5867 33.7109 19.1753 34.7519 19.1753 36.0013C19.1753 37.2506 19.5867 38.2918 20.4094 39.1246ZM35.0306 40.191H37.2092V31.8115H31.435H29.2563V40.191H31.435V33.8683H35.0306V40.191ZM40.161 32.8779C41.004 32.0451 42.035 31.6287 43.2538 31.6287C44.4727 31.6287 45.5037 32.0451 46.3467 32.8779C47.1999 33.7109 47.6265 34.7519 47.6265 36.0013C47.6265 37.2608 47.205 38.307 46.362 39.1399C45.5291 39.9626 44.493 40.3739 43.2538 40.3739C42.0248 40.3739 40.9889 39.9575 40.1459 39.1246C39.3129 38.2918 38.8965 37.2506 38.8965 36.0013C38.8965 34.7519 39.318 33.7109 40.161 32.8779ZM44.7926 34.3406C44.3864 33.914 43.8734 33.7007 43.2538 33.7007C42.6343 33.7007 42.1163 33.914 41.6998 34.3406C41.2936 34.7672 41.0904 35.3208 41.0904 36.0013C41.0904 36.6818 41.2936 37.2354 41.6998 37.662C42.1163 38.0886 42.6343 38.3018 43.2538 38.3018C43.8734 38.3018 44.3864 38.0886 44.7926 37.662C45.2091 37.2354 45.4173 36.6818 45.4173 36.0013C45.4173 35.3208 45.2091 34.7672 44.7926 34.3406ZM56.9379 32.8628C56.2065 32.04 55.2974 31.6287 54.2107 31.6287C53.0934 31.6287 52.2097 32.0806 51.5596 32.9846V31.8115H49.3809V44H51.5596V39.0637C52.2199 39.9372 53.1035 40.3739 54.2107 40.3739C55.3076 40.3739 56.2166 39.9676 56.9379 39.1551C57.6691 38.3323 58.0348 37.2811 58.0348 36.0013C58.0348 34.7216 57.6691 33.6754 56.9379 32.8628ZM55.2162 37.662C54.82 38.0886 54.3173 38.3018 53.7079 38.3018C53.0883 38.3018 52.5753 38.0886 52.1691 37.662C51.7628 37.2354 51.5596 36.6818 51.5596 36.0013C51.5596 35.3208 51.7628 34.7672 52.1691 34.3406C52.5753 33.914 53.0883 33.7007 53.7079 33.7007C54.3274 33.7007 54.8353 33.914 55.2314 34.3406C55.6275 34.7672 55.8256 35.3208 55.8256 36.0013C55.8256 36.6818 55.6224 37.2354 55.2162 37.662ZM66.5187 31.8115V33.8683H63.9287V40.191H61.75V33.8683H59.1752V31.8115H63.9287H66.5187ZM75.8792 31.8115H73.3807L69.9375 37.2354L70.044 34.7824V31.8115H67.8654V40.191H70.3793L73.8377 34.7367L73.7007 37.2201V40.191H75.8792V31.8115ZM83.7504 35.6661C84.756 35.9607 85.2588 36.6615 85.2588 37.7686C85.2588 38.5913 84.9794 39.2007 84.4207 39.5969C83.8622 39.993 83.1257 40.191 82.2116 40.191H77.778V31.8115H81.8307C82.7652 31.8115 83.4964 31.969 84.0246 32.2838C84.5629 32.5987 84.8322 33.1472 84.8322 33.9292C84.8322 34.3355 84.7406 34.6708 84.5579 34.9348C84.375 35.1887 84.1059 35.4325 83.7504 35.6661ZM82.6382 34.3406C82.6382 34.0562 82.562 33.848 82.4097 33.716C82.2674 33.5839 82.0136 33.5179 81.6478 33.5179H79.9567V35.1328H81.6478C82.0136 35.1328 82.2674 35.072 82.4097 34.95C82.562 34.818 82.6382 34.6149 82.6382 34.3406ZM82.0439 38.4847C82.4097 38.4847 82.6686 38.4136 82.821 38.2713C82.9733 38.119 83.0495 37.8854 83.0495 37.5705C83.0495 37.2659 82.9682 37.0424 82.8058 36.9002C82.6534 36.758 82.3995 36.6869 82.0439 36.6869H79.9567V38.4847H82.0439ZM94.9632 31.8115H92.7844V34.9043H89.0213V31.8115H86.8426V40.191H89.0213V36.9612H92.7844V40.191H94.9632V31.8115ZM97.926 32.8779C98.769 32.0451 99.7998 31.6287 101.019 31.6287C102.238 31.6287 103.268 32.0451 104.112 32.8779C104.965 33.7109 105.391 34.7519 105.391 36.0013C105.391 37.2608 104.97 38.307 104.127 39.1399C103.294 39.9626 102.258 40.3739 101.019 40.3739C99.7897 40.3739 98.7536 39.9575 97.9106 39.1246C97.0778 38.2918 96.6613 37.2506 96.6613 36.0013C96.6613 34.7519 97.0828 33.7109 97.926 32.8779ZM102.558 34.3406C102.151 33.914 101.638 33.7007 101.019 33.7007C100.399 33.7007 99.8811 33.914 99.4647 34.3406C99.0584 34.7672 98.8552 35.3208 98.8552 36.0013C98.8552 36.6818 99.0584 37.2354 99.4647 37.662C99.8811 38.0886 100.399 38.3018 101.019 38.3018C101.638 38.3018 102.151 38.0886 102.558 37.662C102.974 37.2354 103.182 36.6818 103.182 36.0013C103.182 35.3208 102.974 34.7672 102.558 34.3406ZM125.572 31.6287C126.842 31.6287 127.888 32.0451 128.711 32.8779C129.533 33.7109 129.945 34.7519 129.945 36.0013C129.945 37.2506 129.533 38.2918 128.711 39.1246C127.888 39.9575 126.847 40.3739 125.587 40.3739C124.531 40.3739 123.597 40.0743 122.784 39.475C121.982 38.8757 121.504 38.0479 121.352 36.9916H123.591C123.713 37.4588 123.957 37.8144 124.323 38.0581C124.699 38.3018 125.12 38.4237 125.587 38.4237C126.105 38.4237 126.542 38.2816 126.898 37.9971C127.263 37.7026 127.512 37.3065 127.644 36.8088H125.024V35.1177H127.614C127.482 34.6403 127.238 34.2644 126.882 33.9902C126.527 33.716 126.09 33.5788 125.572 33.5788C125.085 33.5788 124.663 33.7007 124.308 33.9445C123.952 34.1883 123.713 34.5387 123.591 34.9958H121.352C121.504 33.9597 121.977 33.1421 122.769 32.5428C123.561 31.9334 124.496 31.6287 125.572 31.6287ZM137.222 40.191H140.01L135.926 35.8032L139.751 31.8115H136.978L133.794 35.3004V31.8115H131.614V40.191H133.794V36.5345L137.222 40.191ZM144.526 40.3739C143.277 40.3739 142.236 39.9575 141.404 39.1246C140.58 38.2918 140.169 37.2506 140.169 36.0013C140.169 34.7519 140.58 33.7109 141.404 32.8779C142.236 32.0451 143.282 31.6287 144.541 31.6287C145.598 31.6287 146.517 31.9334 147.299 32.5428C148.092 33.1421 148.564 33.9597 148.716 34.9958H146.476C146.355 34.559 146.116 34.2239 145.76 33.9902C145.416 33.7565 145.009 33.6398 144.541 33.6398C143.882 33.6398 143.353 33.8581 142.957 34.2949C142.561 34.7316 142.368 35.3004 142.378 36.0013C142.368 36.7021 142.561 37.2709 142.957 37.7077C143.364 38.1444 143.887 38.3628 144.526 38.3628C144.993 38.3628 145.405 38.246 145.76 38.0124C146.116 37.7788 146.355 37.4385 146.476 36.9916H148.716C148.554 38.0581 148.076 38.8909 147.284 39.4902C146.502 40.0794 145.583 40.3739 144.526 40.3739ZM156.024 40.191H158.202V31.8115H152.429H150.25V40.191H152.429V33.8683H156.024V40.191ZM164.263 31.6287C165.635 31.6287 166.715 32.101 167.508 33.0456C168.311 33.9902 168.655 35.1633 168.544 36.565H162.115C162.185 37.2151 162.419 37.7128 162.816 38.0581C163.211 38.4034 163.704 38.5761 164.293 38.5761C164.72 38.5761 165.101 38.4847 165.435 38.3018C165.771 38.1089 166.01 37.8498 166.151 37.5248H168.406C168.113 38.4694 167.595 39.1805 166.853 39.6579C166.112 40.1353 165.263 40.3739 164.309 40.3739C163.008 40.3739 161.947 39.9626 161.125 39.1399C160.302 38.317 159.891 37.276 159.891 36.0166C159.891 34.757 160.302 33.7109 161.125 32.8779C161.947 32.0451 162.993 31.6287 164.263 31.6287ZM164.247 33.4264C163.729 33.4264 163.298 33.5687 162.952 33.853C162.608 34.1273 162.364 34.4981 162.221 34.9653H166.228C166.107 34.4981 165.873 34.1273 165.527 33.853C165.182 33.5687 164.755 33.4264 164.247 33.4264ZM177.813 32.8628C177.081 32.04 176.172 31.6287 175.086 31.6287C173.968 31.6287 173.085 32.0806 172.434 32.9846V31.8115H170.255V44H172.434V39.0637C173.095 39.9372 173.978 40.3739 175.086 40.3739C176.182 40.3739 177.092 39.9676 177.813 39.1551C178.544 38.3323 178.909 37.2811 178.909 36.0013C178.909 34.7216 178.544 33.6754 177.813 32.8628ZM176.091 37.662C175.694 38.0886 175.191 38.3018 174.583 38.3018C173.963 38.3018 173.45 38.0886 173.044 37.662C172.638 37.2354 172.434 36.6818 172.434 36.0013C172.434 35.3208 172.638 34.7672 173.044 34.3406C173.45 33.914 173.963 33.7007 174.583 33.7007C175.202 33.7007 175.71 33.914 176.106 34.3406C176.502 34.7672 176.7 35.3208 176.7 36.0013C176.7 36.6818 176.497 37.2354 176.091 37.662ZM187.394 31.8115V33.8683H184.803V40.191H182.625V33.8683H180.05V31.8115H184.803H187.394ZM196.754 31.8115H194.255L190.812 37.2354L190.918 34.7824V31.8115H188.74V40.191H191.254L194.712 34.7367L194.576 37.2201V40.191H196.754V31.8115ZM204.808 35.7575C205.682 36.113 206.118 36.7885 206.118 37.7839C206.118 38.6167 205.778 39.2566 205.097 39.7035C204.417 40.1504 203.507 40.3739 202.37 40.3739C199.983 40.3739 198.612 39.3734 198.256 37.3724H200.465C200.547 37.8601 200.734 38.2054 201.029 38.4085C201.334 38.6117 201.765 38.7133 202.324 38.7133C203.381 38.7133 203.909 38.3526 203.909 37.6315C203.909 37.0322 203.502 36.7326 202.691 36.7326H201.288V35.0567H202.461C202.899 35.0567 203.204 34.9907 203.376 34.8586C203.558 34.7265 203.65 34.5184 203.65 34.2339C203.65 33.5738 203.173 33.2437 202.217 33.2437C201.304 33.2437 200.775 33.6042 200.634 34.3253H198.425C198.759 32.5275 200.034 31.6287 202.248 31.6287C203.325 31.6287 204.194 31.842 204.854 32.2686C205.513 32.6952 205.844 33.2996 205.844 34.0816C205.844 34.8535 205.498 35.4122 204.808 35.7575ZM214.178 34.95C213.599 34.493 212.873 34.2644 211.999 34.2644H209.866V31.8115H207.688V40.191H211.923C212.329 40.191 212.711 40.1353 213.066 40.0235C213.432 39.9118 213.761 39.739 214.056 39.5055C214.361 39.2718 214.599 38.957 214.772 38.5609C214.955 38.1546 215.046 37.6874 215.046 37.1592C215.046 36.1435 214.756 35.4071 214.178 34.95ZM218.353 31.8115H216.174V40.191H218.353V31.8115ZM212.837 37.1592C212.837 37.7991 212.507 38.119 211.847 38.119H209.866V36.1841H211.862C212.512 36.1841 212.837 36.5091 212.837 37.1592Z" fill="white"/>
</svg>
