<svg width="71" height="26" viewBox="0 0 71 26" fill="none" xmlns="http://www.w3.org/2000/svg">
<path d="M9.47565 10.7881C9.4641 11.1462 9.3948 12.1395 8.55162 12.8441C7.63914 13.6064 6.09138 13.7797 4.97099 13.7797C4.54362 13.7797 4.10471 13.7681 3.67734 13.7219C2.79951 13.618 1.79462 13.3985 1.25175 12.5784C0.91679 12.0586 0.88214 11.5158 0.870589 10.8921H3.74664C3.74664 10.9845 3.71199 11.4003 3.9892 11.6428C4.13936 11.7814 4.49742 11.92 4.98254 11.92C5.06339 11.92 5.69867 11.9085 6.06828 11.6313C6.49565 11.3079 6.44944 10.6841 6.44944 10.5686C6.44944 10.2337 6.46099 9.91026 6.46099 9.58685C6.32239 9.80631 6.31084 9.82941 6.18378 9.92181C5.71022 10.303 4.98254 10.3954 4.40502 10.3954C3.56184 10.3954 2.84571 10.2337 2.16424 9.71391C1.58671 9.26344 0.835938 8.32786 0.835938 6.56064C0.835938 6.17948 0.870589 4.65482 1.85238 3.61528C2.5454 2.87606 3.60804 2.59885 4.58982 2.6104C4.82083 2.6104 5.71022 2.6104 6.36859 3.13017C6.5072 3.23412 6.58805 3.31497 6.78441 3.58063L6.77285 2.82985H9.5103L9.49875 10.3376C9.49875 10.4993 9.49875 10.6379 9.47565 10.7881ZM5.75642 4.93203C5.66401 4.88583 5.46766 4.79343 5.19045 4.80498C4.99409 4.80498 4.78618 4.85118 4.62448 4.93203C4.17401 5.15149 3.8737 5.64816 3.8737 6.65304C3.8737 7.32297 4.02385 7.73878 4.22021 7.95824C4.32417 8.0853 4.45122 8.1546 4.60138 8.2239C4.65913 8.25855 4.87859 8.31631 5.10959 8.31631C5.23665 8.31631 5.44456 8.3163 5.71022 8.18925C6.34549 7.91204 6.41479 7.12661 6.41479 6.52599C6.41479 5.96002 6.35704 5.23234 5.75642 4.93203ZM15.5743 10.7996V10.1875C15.4472 10.2799 15.2971 10.4069 14.9852 10.5571C14.6502 10.7303 13.9226 10.9845 12.9292 10.9845C12.7329 10.9845 12.19 10.9845 11.6587 10.7881C10.6307 10.3838 10.0763 9.49445 10.0763 8.42026C10.0763 7.99289 10.1687 7.03421 11.1736 6.36428C11.8319 5.92537 12.6751 5.80986 13.449 5.70591C13.8995 5.64816 14.373 5.57886 14.8119 5.498C15.0083 5.4518 15.2278 5.4056 15.4241 5.34785C15.4241 5.3132 15.4241 5.10529 15.3779 4.97823C15.2855 4.65482 15.0545 4.42381 14.3499 4.42381C14.1189 4.42381 13.9688 4.45847 13.8879 4.47002C13.3912 4.59707 13.345 5.00133 13.2988 5.17459L10.3304 5.24389C10.365 5.07064 10.4112 4.92048 10.4343 4.77033C10.5152 4.45846 10.6769 3.91559 11.3122 3.41893C11.9474 2.93381 12.9061 2.58729 14.6271 2.59885C15.8746 2.59885 17.561 2.80675 18.1731 4.08885C18.3464 4.44691 18.4041 4.75878 18.4041 5.498L18.3926 9.82941C18.3926 10.4069 18.4734 10.534 18.6698 10.8112L15.5743 10.7996ZM14.2113 7.47313C13.8764 7.55398 13.3912 7.65793 13.1487 7.95824C13.114 8.00444 13.0101 8.14305 13.0101 8.32786C13.0101 8.57041 13.2064 8.94003 13.7955 8.94003C14.0727 8.94003 14.3153 8.84762 14.5694 8.72057C15.4588 8.247 15.4126 7.46157 15.4126 7.09196C15.0083 7.24212 14.6156 7.35762 14.2113 7.47313ZM33.3388 10.8343L33.3504 5.80986C33.3504 5.3132 33.3504 4.88583 33.2002 4.42381C32.8191 3.25722 31.8257 2.92226 31.4215 2.80675C30.9479 2.66815 30.5783 2.6797 30.3819 2.6797C29.0883 2.6566 28.4299 3.16482 28.0603 3.54598C27.9563 3.64994 27.7831 3.82319 27.6445 4.1466C27.4712 3.83474 27.3673 3.64993 27.2518 3.53443C26.4894 2.66815 25.1611 2.66815 24.8839 2.66815C23.7982 2.66815 23.1283 3.08396 22.8048 3.38427C22.6778 3.51133 22.5623 3.66148 22.3775 3.9849V2.85296H19.3166L19.3051 10.8112H22.4814L22.493 6.49134C22.493 6.24878 22.5392 6.08707 22.5738 5.99467C22.7933 5.3363 23.4517 5.25544 23.6711 5.25544C23.9137 5.25544 24.549 5.3363 24.7338 6.00622C24.78 6.19103 24.78 6.31808 24.78 6.50289L24.7569 10.8112H27.9217L27.9332 6.57219C27.9332 6.37583 27.9332 6.21413 27.9794 6.02932C28.1758 5.32475 28.8457 5.26699 29.0883 5.26699C30.2895 5.26699 30.1971 6.34118 30.1971 6.65304L30.1856 10.8112L33.3388 10.8343ZM41.1469 10.5686C40.604 10.892 39.9803 11.0422 39.345 11.0422C38.5365 11.0422 37.959 10.7765 37.6818 10.5917C37.5432 10.4878 37.4508 10.3723 37.3468 10.2568V10.8458H34.286L34.2975 0H37.4508L37.4623 3.44203C37.6009 3.30342 37.7049 3.21102 37.8781 3.08396C38.3402 2.7721 38.9061 2.6566 39.4721 2.6566C40.4539 2.6566 41.2855 3.00311 41.9439 3.71924C42.4175 4.23901 42.9372 5.10529 42.9372 6.69925C42.9488 7.14971 42.9141 9.49445 41.1469 10.5686ZM39.4952 5.37095C39.218 4.96668 38.7906 4.90893 38.6174 4.90893C38.4903 4.90893 38.2016 4.94358 37.9474 5.13994C37.4392 5.55575 37.3815 6.24878 37.3815 6.8494C37.3815 7.40382 37.4392 8.14305 37.9012 8.51266C37.9936 8.59352 38.2478 8.75522 38.6058 8.75522C38.7444 8.75522 39.114 8.70902 39.4028 8.42026C39.6685 8.14305 39.8302 7.65793 39.8302 6.8494C39.8302 6.35274 39.784 5.78676 39.4952 5.37095ZM46.668 10.8458L46.6911 0H43.5148L43.5032 10.8458H46.668ZM47.6267 2.11373V0.0115511H50.7915V2.11373H47.6267ZM47.6036 10.8574L47.6152 2.89916H50.78L50.7684 10.8574H47.6036ZM60.2282 10.8689L60.2398 5.84451C60.2398 5.27854 60.1936 5.00133 60.1358 4.73567C60.0088 4.2159 59.7546 3.69614 59.3388 3.34962C58.5881 2.7028 57.6063 2.69125 57.3175 2.69125C56.509 2.69125 55.6542 2.89916 55.0767 3.48823C54.9266 3.63838 54.8919 3.67304 54.6956 3.9618V2.89916H51.7155L51.704 10.8574H54.8573L54.8688 6.61839C54.8688 6.28343 54.8573 5.31319 56.0239 5.31319C56.74 5.31319 56.971 5.69436 57.0518 5.97157C57.098 6.15638 57.098 6.32963 57.098 6.51444L57.0865 10.8574L60.2282 10.8689ZM69.5032 10.8805C69.4917 11.2386 69.4223 12.2319 68.5792 12.9365C67.6782 13.6988 66.1189 13.8721 64.9985 13.8721C64.5712 13.8721 64.1323 13.8605 63.7049 13.8143C62.8271 13.7104 61.8106 13.4909 61.2793 12.6708C60.9443 12.151 60.9097 11.6082 60.8981 10.9845H63.7742C63.7742 11.0769 63.7395 11.4927 64.0168 11.7352C64.1669 11.8738 64.525 12.0124 65.0101 12.0124C65.0909 12.0124 65.7262 12.0009 66.0958 11.7237C66.5232 11.4003 66.477 10.7765 66.477 10.661C66.477 10.3261 66.4885 10.0027 66.4885 9.67926C66.3499 9.89872 66.3384 9.92181 66.2113 10.0142C65.7378 10.3954 65.0101 10.4878 64.4326 10.4878C63.5894 10.4878 62.8617 10.3376 62.1918 9.80631C61.6143 9.35584 60.8635 8.42026 60.8635 6.65304C60.8635 6.27188 60.8981 4.74722 61.8799 3.70769C62.5729 2.96846 63.6356 2.69125 64.6174 2.7028C64.8484 2.7028 65.7378 2.7028 66.3961 3.22257C66.5347 3.32652 66.6156 3.40738 66.812 3.67304L66.8004 2.92226H69.5378L69.5263 10.43C69.5263 10.5917 69.5263 10.7303 69.5032 10.8805ZM65.784 5.02443C65.6916 4.97823 65.4952 4.88583 65.218 4.89738C65.0216 4.89738 64.8137 4.94358 64.652 5.02443C64.2016 5.24389 63.9012 5.74056 63.9012 6.74545C63.9012 7.41537 64.0514 7.83119 64.2478 8.05065C64.3517 8.1777 64.4788 8.247 64.6289 8.31631C64.6867 8.35096 64.9061 8.40871 65.1371 8.40871C65.2642 8.40871 65.4721 8.40871 65.7378 8.28166C66.373 8.00445 66.4423 7.21902 66.4423 6.61839C66.4423 6.06397 66.3846 5.32475 65.784 5.02443ZM16.9719 22.8583C17.8266 22.8583 18.7044 22.7197 18.9701 22.6966V20.5367C18.6582 20.5944 18.5889 20.5944 18.4041 20.5944C17.5725 20.5944 17.5263 20.0862 17.5263 19.7628L17.5841 16.7019H18.9701V14.9809H17.6187L17.6418 12.4745H14.4654L14.4192 14.9693H13.3104V16.6904H14.3961L14.3384 20.5482C14.3384 20.8254 14.3499 21.1142 14.4308 21.4029C14.6733 22.2115 15.2971 22.8467 16.9719 22.8583ZM31.6987 19.3585C31.6987 19.3585 31.6987 19.7281 31.768 19.9707C31.8719 20.2825 32.1838 20.8601 33.027 20.8485C33.5121 20.8485 33.7777 20.6753 33.9279 20.5482C34.2513 20.2825 34.4015 19.936 34.4708 19.8321L37.0581 20.9294C36.9772 21.0564 36.8848 21.2181 36.6769 21.4607C36.1225 22.1075 35.4872 22.454 35.2215 22.5926C34.8404 22.7774 34.0088 23.1008 32.8768 23.1008C32.2184 23.1008 31.5832 23.0084 30.9941 22.7659C29.3539 22.0844 28.4761 20.4904 28.4876 18.7579C28.4876 17.1177 29.25 16.1013 29.7004 15.6624C30.8439 14.5766 32.4148 14.4958 32.8653 14.4958C33.4081 14.4958 35.0252 14.5766 36.1802 15.8241C36.5614 16.2399 36.8502 16.7597 37.0234 17.3025C37.2313 17.9956 37.2544 18.6655 37.2544 19.3932L31.6987 19.3585ZM33.9625 17.2448C33.7546 16.5864 33.1656 16.494 32.923 16.494C32.6805 16.5056 32.5187 16.5749 32.4263 16.6211C31.8373 16.8752 31.768 17.522 31.7333 17.6952H34.0319C34.0203 17.6028 34.0203 17.4411 33.9625 17.2448ZM42.9603 17.3025C43.1105 17.3025 43.2722 17.3141 43.4223 17.3372V14.669C42.5907 14.669 41.9208 14.6921 41.2162 15.1888C41.043 15.2928 40.939 15.3852 40.7888 15.5238V14.8307H37.7511L37.7395 22.789H40.8813L40.8928 19.0466C40.8928 18.7694 40.8928 18.55 40.9852 18.2959C41.3664 17.2101 42.7178 17.291 42.9603 17.3025ZM48.9088 22.8005V22.1884C48.7817 22.2808 48.6316 22.4078 48.3197 22.558C47.9848 22.7312 47.2571 22.9853 46.2637 22.9853C46.0674 22.9853 45.5245 22.9853 44.9932 22.789C43.9652 22.3847 43.4108 21.4953 43.4108 20.4212C43.4108 19.9938 43.5032 19.0351 44.5081 18.3652C45.1665 17.9147 46.0096 17.8108 46.7835 17.7068C47.2224 17.649 47.7076 17.5797 48.1465 17.4989C48.3428 17.4527 48.5623 17.4065 48.7586 17.3487C48.7586 17.3141 48.7586 17.1062 48.7124 16.9791C48.62 16.6557 48.389 16.4247 47.6845 16.4247C47.4534 16.4247 47.3033 16.4594 47.2224 16.4709C46.7258 16.598 46.6796 17.0022 46.6334 17.1755L43.6649 17.2448C43.6996 17.0715 43.7458 16.9214 43.7689 16.7712C43.8497 16.4594 44.0114 15.9165 44.6467 15.4198C45.282 14.9347 46.2407 14.5882 47.9617 14.5997C49.2091 14.5997 50.8955 14.8076 51.5076 16.0897C51.6809 16.4478 51.7387 16.7712 51.7387 17.4989L51.7271 21.8303C51.7271 22.4194 51.808 22.5349 52.0043 22.8121L48.9088 22.8005ZM47.5458 19.4625C47.2109 19.5433 46.7373 19.6473 46.4832 19.9476C46.4486 19.9938 46.3446 20.1324 46.3446 20.3172C46.3446 20.5598 46.541 20.9294 47.13 20.9294C47.4072 20.9294 47.6498 20.837 47.9039 20.7099C48.7933 20.2363 48.7471 19.4509 48.7471 19.0813C48.3428 19.2315 47.9501 19.3585 47.5458 19.4625ZM57.8142 23.0084C57.5832 23.0084 56.7515 23.0084 56.0932 22.558C55.9892 22.4771 55.9199 22.4194 55.7582 22.2692V25.6881H52.6511L52.6627 14.8423H55.7466V15.4545C55.8968 15.2697 55.9661 15.2119 56.0585 15.1426C56.3473 14.9116 56.9479 14.6228 57.8604 14.6228C60.3437 14.6228 61.3255 16.6557 61.3255 18.8618C61.3255 21.1142 60.286 23.02 57.8142 23.0084ZM57.8719 17.3718C57.5947 17.0022 57.1789 16.9445 57.0287 16.9445C56.9017 16.9445 56.6591 16.956 56.4166 17.0946C55.7697 17.4411 55.7351 18.2497 55.7351 18.8734C55.7351 19.4856 55.7813 20.3056 56.3935 20.6406C56.636 20.7792 56.8439 20.7792 56.9479 20.7792C57.0865 20.7792 57.306 20.7677 57.5601 20.6175C58.126 20.2594 58.2069 19.4971 58.2069 18.9196C58.2069 18.4229 58.1722 17.7877 57.8719 17.3718ZM70.1616 14.8769H66.8813C66.8697 14.9694 65.68 20.0631 65.68 20.0631L64.5481 14.8769H61.2446L63.7511 22.1884C63.8781 22.5464 63.9936 22.8814 63.9936 22.9969C63.9936 23.2857 63.7742 23.3781 63.3353 23.3781C63.0234 23.3781 62.7347 23.3434 62.4343 23.3319V25.5842L63.3122 25.6766C63.5778 25.7112 63.855 25.6881 64.1092 25.6881C64.8946 25.6881 65.5068 25.6997 66.142 25.203C66.7427 24.7064 67.0199 23.9902 67.2624 23.2857L70.1616 14.8769ZM27.8524 16.5402C27.7253 15.8703 27.4135 15.466 27.2056 15.2697C26.6396 14.7037 25.7617 14.4727 24.9994 14.4727C23.8444 14.4727 23.1283 14.9116 22.8164 15.2119C22.7124 15.3159 22.6316 15.3967 22.4583 15.6162L22.4699 11.9316H19.3166L19.3051 22.7774H22.4468L22.4583 17.1062H25.2651L25.2535 22.7774H27.9217L27.9332 17.5913C27.9448 17.187 27.9332 16.9329 27.8524 16.5402Z" fill="white"/>
<path d="M22.4569 17.083L24.2356 17.6952L24.2241 21.9226L22.4453 22.7543L22.4569 17.083Z" fill="white" fill-opacity="0.5"/>
<path d="M22.4355 22.7659H19.3168L10.7695 26H17.4688L22.4355 22.7659Z" fill="url(#paint0_linear)"/>
<path d="M27.9202 22.7659H25.2636L24.8594 26H31.1544L27.9202 22.7659Z" fill="url(#paint1_linear)"/>
<defs>
<linearGradient id="paint0_linear" x1="16.6025" y1="22.7659" x2="16.6025" y2="26" gradientUnits="userSpaceOnUse">
<stop stop-color="white"/>
<stop offset="1" stop-color="white" stop-opacity="0"/>
</linearGradient>
<linearGradient id="paint1_linear" x1="28.0069" y1="22.7659" x2="28.0069" y2="26" gradientUnits="userSpaceOnUse">
<stop stop-color="white"/>
<stop offset="1" stop-color="white" stop-opacity="0"/>
</linearGradient>
</defs>
</svg>
