<svg width="142" height="22" viewBox="0 0 142 22" fill="none" xmlns="http://www.w3.org/2000/svg">
<path fill-rule="evenodd" clip-rule="evenodd" d="M136.346 2.55935C136.346 1.37854 137.307 0.417849 138.487 0.417849C139.668 0.417849 140.629 1.37854 140.629 2.55935C140.629 3.74017 139.668 4.70038 138.487 4.70038C137.307 4.70038 136.346 3.74017 136.346 2.55935ZM135.928 2.55935C135.928 3.97017 137.077 5.11847 138.487 5.11847C139.898 5.11847 141.047 3.97017 141.047 2.55935C141.047 1.14806 139.898 0 138.487 0C137.077 0 135.928 1.14806 135.928 2.55935ZM137.881 2.3467H138.639C138.787 2.3467 138.9 2.31154 138.976 2.24122C139.052 2.17089 139.091 2.06541 139.091 1.92524C139.091 1.84167 139.078 1.77327 139.054 1.72029C139.029 1.66707 138.995 1.62588 138.952 1.59626C138.909 1.56664 138.86 1.54689 138.804 1.53701C138.749 1.5269 138.691 1.52232 138.632 1.52232H137.881V2.3467ZM137.419 1.14493H138.68C138.971 1.14493 139.189 1.20779 139.334 1.33375C139.48 1.45922 139.553 1.63455 139.553 1.85829C139.553 1.98424 139.534 2.08829 139.497 2.17089C139.46 2.2535 139.417 2.32021 139.368 2.37079C139.318 2.42136 139.27 2.45749 139.222 2.47988C139.174 2.5018 139.139 2.51649 139.116 2.5242V2.53142C139.156 2.53648 139.198 2.54876 139.244 2.56875C139.289 2.58802 139.332 2.61957 139.371 2.66244C139.411 2.70579 139.443 2.7619 139.469 2.83054C139.495 2.90014 139.508 2.98612 139.508 3.08968C139.508 3.24478 139.52 3.38591 139.543 3.51283C139.567 3.63974 139.603 3.73054 139.652 3.78473H139.157C139.122 3.72813 139.102 3.66527 139.096 3.59591C139.09 3.52728 139.087 3.46032 139.087 3.39674C139.087 3.27584 139.079 3.1718 139.064 3.08414C139.05 2.99623 139.023 2.92398 138.983 2.8657C138.944 2.80814 138.89 2.76527 138.823 2.7383C138.755 2.71133 138.668 2.6976 138.562 2.6976H137.881V3.78473H137.419V1.14493ZM52.7831 12.7946C52.7831 14.0999 53.8392 15.2588 55.0419 15.2588C56.3913 15.2588 57.2564 14.0411 57.2564 12.1496C57.2564 10.3308 56.3913 9.08378 55.086 9.08378C53.9418 9.08378 52.7831 10.36 52.7831 11.4746V12.7946ZM50.5831 5.32892H52.7831V9.89082C53.0765 9.33353 53.9859 8.14549 55.3644 8.14549C57.1391 8.14549 58.4885 9.94958 58.4885 12.2669C58.4885 14.4226 57.0512 16.2265 55.3353 16.2265C53.9449 16.2265 53.2702 15.3067 52.7864 14.6472L52.7831 14.6427V16.1241H50.539V15.2003H51.6539V6.25349H50.5831V5.32892ZM27.5783 10.9906H23.9995V12.0026H26.4047C26.3898 12.4279 26.3756 12.6334 26.3313 12.8383C26.0382 14.2171 24.8063 15.2878 23.5008 15.2878C21.7116 15.2878 20.3769 13.4399 20.3769 10.961C20.3769 7.76415 22.2101 6.67846 23.4863 6.67846C24.3078 6.67846 25.0994 7.08909 25.6861 7.80798C25.9503 8.1307 26.1263 8.49725 26.2728 9.06923H27.402V5.78376H26.3168V7.38267C25.3781 5.87191 24.2197 5.59302 23.237 5.59302C20.8463 5.59302 18.9834 7.9691 18.9834 11.02C18.9834 14.041 20.861 16.388 23.2662 16.388C24.146 16.388 24.9674 16.0802 25.642 15.4933C25.9356 15.2438 26.082 15.0533 26.4047 14.5256V16.124H27.5783V10.9906ZM2.91892 11.6066V14.4374H5.08957C6.01341 14.4374 6.7323 13.8362 6.7323 13.0439C6.7323 12.1786 5.99872 11.6066 4.88389 11.6066H2.91892ZM2.91892 7.47047V9.97853H4.95735C5.83736 9.97853 6.43897 9.43617 6.43897 8.65851C6.43897 7.96924 5.76415 7.47047 4.81092 7.47047H2.91892ZM0.0293818 5.78391H3.97474C5.73501 5.78391 6.39465 5.84243 6.89342 6.06279C7.58293 6.35589 8.4774 7.19207 8.4774 8.55592C8.4774 9.59729 8.13999 10.1105 7.14269 10.6531C8.31604 11.1377 8.85888 11.8708 8.85888 13.2346C8.85888 14.9657 7.52393 16.1242 5.52933 16.1242H0V14.4374H0.806797V7.47047H0.0293818V5.78391ZM15.5071 11.2251C15.3754 10.2278 14.774 9.68541 13.8502 9.68541C12.9991 9.68541 12.3394 10.2574 12.0899 11.2251H15.5071ZM17.5167 13.5426C17.1648 15.2439 15.7419 16.2999 13.8352 16.2999C11.6352 16.2999 10.0219 14.5842 10.0219 12.1785C10.0219 9.80269 11.6499 8.04267 13.8502 8.04267C15.0967 8.04267 16.1964 8.62959 16.8715 9.64157C17.5804 10.727 17.6184 11.7549 17.6475 12.5432L17.6486 12.5747H11.9873C12.1781 14.6134 13.5128 14.7157 13.8791 14.7157C14.6567 14.7157 15.17 14.3492 15.4782 13.5426H17.5167ZM34.149 12.0904L33.4303 12.1786C31.0249 12.4719 30.2183 12.9119 30.2183 13.9092C30.2183 14.7307 30.937 15.4053 31.8461 15.4053C33.2396 15.4053 34.149 14.0855 34.149 13.3666V12.0904ZM36.3931 16.1242H34.1634V14.7307C33.5332 15.7138 32.6823 16.2711 31.5236 16.2711C30.0569 16.2711 28.9862 15.2589 28.9862 13.895C28.9862 12.399 30.3062 11.6504 33.4154 11.3573C33.4952 11.346 33.7063 11.326 33.9405 11.3037L33.9407 11.3037L33.9408 11.3037L33.9408 11.3037L33.9409 11.3037L34.149 11.2839V10.4773C34.149 9.58311 33.4597 9.0251 32.3743 9.0251C31.2301 9.0251 30.7168 9.40658 30.4823 10.4186H29.2942C29.47 9.62694 29.7048 9.21584 30.1742 8.80546C30.7026 8.36545 31.4357 8.13088 32.2861 8.13088C33.8997 8.13088 35.2785 8.87891 35.2785 10.8586V15.2003H36.3931V16.1242ZM39.6566 9.71353L39.6561 9.71433V8.21851H37.3679V9.15704H38.5121V15.2003H37.3679V16.1242H40.7562V15.2003H39.6417V11.2696C39.6417 10.5508 40.507 9.04 41.7242 9.04C42.4869 9.04 42.8537 9.48 42.8537 10.4624V16.1242H45.1122V15.2003H43.983V11.2109C43.983 10.6827 44.7016 9.04 46.0655 9.04C46.8284 9.04 47.195 9.53853 47.195 10.6389V16.1242H49.4097V15.2003H48.3242V10.2278C48.3242 8.86395 47.6203 8.08653 46.4176 8.08653C45.8015 8.08653 45.2442 8.30665 44.731 8.76159C44.4376 9.01086 44.291 9.2016 43.983 9.72927C43.7922 8.62961 43.1908 8.08653 42.1495 8.08653C40.7129 8.08653 40.0089 9.1709 39.6566 9.71353ZM61.6259 5.32897H59.3818V6.25353H60.4966V15.2003H59.3674V16.1242H62.682V15.2003H61.6259V5.32897ZM69.1765 11.5331C69.0884 10.5507 68.8683 10.0081 68.4138 9.56812C68.0617 9.2454 67.6217 9.0838 67.1083 9.0838C66.155 9.0838 65.3629 9.72923 65.0111 10.7708C64.9523 10.9611 64.8788 11.2547 64.8497 11.5331H69.1765ZM70.3058 13.9535C70.1445 14.4961 69.9684 14.8188 69.6751 15.1557C69.0443 15.8896 68.179 16.2852 67.1962 16.2852C65.0549 16.2852 63.5591 14.6134 63.5591 12.2081C63.5591 9.89083 65.0549 8.11588 67.0057 8.11588C68.9711 8.11588 70.4816 9.64157 70.4816 12.3989H64.7762C64.8788 13.5573 65.143 14.203 65.6856 14.7307C66.0963 15.1268 66.5803 15.3176 67.167 15.3176C68.0764 15.3176 68.6337 14.9065 69.0296 13.9535H70.3058ZM75.1454 12.2961L76.5242 7.71974L77.8736 12.2961H75.1454ZM77.7561 5.78391H75.2774L72.4031 14.4374H71.6109V16.1242H74.0162L74.691 13.8801H78.3283L79.0031 16.1242H81.379V14.4374H80.6016L77.7561 5.78391ZM81.3205 8.27727H84.4591V9.80272H83.667L84.7524 14.4227L86.0431 8.27727H88.0673L89.3726 14.3492L90.414 9.80272H89.6513V8.27727H92.8047V9.80272H92.1299L90.4431 16.1242H88.3604L87.0553 10.6678L85.8229 16.1242H83.7113L81.9802 9.80272H81.3205V8.27727ZM95.3419 13.8362C95.3419 12.7508 96.5444 12.5892 98.3926 12.4133V13.1761C98.3926 14.1584 97.6299 14.9065 96.6326 14.9065C95.8552 14.9065 95.3419 14.4812 95.3419 13.8362ZM100.901 14.5984H100.226V10.8585C100.226 9.06935 99.0525 8.0865 96.8819 8.0865C95.0192 8.0865 93.7577 9.09849 93.6551 10.6678L95.5618 10.7265C95.6059 9.99343 96.1632 9.53849 96.9698 9.53849C98.114 9.53849 98.4073 9.84652 98.422 11.0493C95.9139 11.2838 93.3177 11.5331 93.3177 13.8362C93.3177 15.2292 94.5205 16.2852 96.0897 16.2852C97.0579 16.2852 97.6593 16.0068 98.4658 15.2003V16.1241H100.901V14.5984ZM104.949 9.49469C105.462 8.4974 106.034 8.08653 106.914 8.08653C107.178 8.08653 107.413 8.11591 107.794 8.18937V10.0228C107.442 9.94963 107.163 9.92001 106.841 9.92001C105.814 9.92001 104.949 10.6531 104.949 11.5481V14.5985H105.888V16.1242H102.265V14.5985H103.027V9.80272H102.279V8.27727H104.949V9.49469ZM112.018 9.68541C112.942 9.68541 113.544 10.2278 113.675 11.2251H110.258C110.508 10.2574 111.167 9.68541 112.018 9.68541ZM112.004 16.2999C113.91 16.2999 115.333 15.2439 115.685 13.5426H113.646C113.338 14.3492 112.825 14.7157 112.047 14.7157C111.681 14.7157 110.346 14.6134 110.155 12.5747H115.817L115.816 12.544C115.787 11.7556 115.749 10.7273 115.04 9.64157C114.365 8.62959 113.265 8.04267 112.018 8.04267C109.818 8.04267 108.19 9.80269 108.19 12.1785C108.19 14.5842 109.804 16.2999 112.004 16.2999ZM116.763 15.1257H117.783V16.1242H116.763V15.1257ZM123.449 13.1404C123.449 14.621 122.779 15.5208 121.66 15.5208C120.585 15.5208 119.938 14.654 119.938 13.1842C119.938 11.7467 120.596 10.858 121.66 10.858C122.747 10.858 123.449 11.7467 123.449 13.1404ZM121.693 10.1234C120.091 10.1234 118.984 11.3628 118.984 13.1621C118.984 15.0049 120.07 16.2556 121.671 16.2556C123.284 16.2556 124.403 14.9941 124.403 13.1621C124.403 11.4066 123.262 10.1234 121.693 10.1234ZM126.849 11.5714C127.134 10.957 127.288 10.7704 127.551 10.5185C127.858 10.255 128.242 10.1122 128.626 10.1122C128.769 10.1122 128.966 10.1341 129.263 10.1784V11.0447C128.966 10.9903 128.791 10.9684 128.637 10.9684C127.035 10.9684 126.849 12.6248 126.849 12.7125V15.4332H127.858V16.1242H125.159V15.4332H126.004V10.9132H125.127V10.2109H126.849V11.5714ZM132.436 10.8255C133.336 10.8255 134.126 11.7467 134.126 12.3943V13.4583C134.126 14.1492 133.358 14.9941 132.491 14.9941C131.482 14.9941 130.879 14.2044 130.879 12.8986C130.879 11.6152 131.471 10.8255 132.436 10.8255ZM132.349 15.685C132.996 15.685 133.588 15.4331 134.126 14.6759V15.9049C134.126 16.7604 133.522 17.276 132.524 17.276C131.734 17.276 131.317 17.0128 130.966 16.2994H130.012C130.111 16.5956 130.176 16.7384 130.253 16.8813C130.648 17.572 131.482 17.9999 132.458 17.9999C134.06 17.9999 134.97 17.1881 134.97 15.7621V10.9131H135.793V10.2109H134.126V11.2643C133.819 10.8141 133.336 10.1234 132.25 10.1234C130.911 10.1234 129.957 11.2532 129.957 12.8441C129.957 14.5225 130.933 15.685 132.349 15.685Z" fill="white"/>
</svg>
