<svg width="169" height="30" viewBox="0 0 169 30" fill="none" xmlns="http://www.w3.org/2000/svg">
<path d="M65.2532 3.4491H60.7948C60.2771 3.4491 60.0934 3.61608 59.9933 4.13372L58.1398 14.6202C58.0563 15.1378 58.1899 15.3048 58.7075 15.3048H60.06C60.561 15.3048 60.7614 15.1378 60.8449 14.6202L61.4126 11.4475H63.8672C66.372 11.4475 68.1587 10.1785 68.6095 7.67373C69.0437 5.16901 67.7579 3.4491 65.2532 3.4491ZM64.0175 8.95949H61.8468L62.3811 5.92042H64.5519C65.5203 5.92042 66.0046 6.50486 65.8376 7.45665C65.6706 8.40845 64.986 8.95949 64.0175 8.95949Z" fill="white"/>
<path d="M65.2532 3.4491H60.7948C60.2771 3.4491 60.0934 3.61608 59.9933 4.13372L58.1398 14.6202C58.0563 15.1378 58.1899 15.3048 58.7075 15.3048H60.06C60.561 15.3048 60.7614 15.1378 60.8449 14.6202L61.4126 11.4475H63.8672C66.372 11.4475 68.1587 10.1785 68.6095 7.67373C69.0437 5.16901 67.7579 3.4491 65.2532 3.4491ZM64.0175 8.95949H61.8468L62.3811 5.92042H64.5519C65.5203 5.92042 66.0046 6.50486 65.8376 7.45665C65.6706 8.40845 64.986 8.95949 64.0175 8.95949Z" fill="white"/>
<path d="M78.6893 3.4491H71.9767C71.459 3.4491 71.2753 3.61608 71.1751 4.13372L69.3217 14.6202C69.2382 15.1378 69.3717 15.3048 69.8894 15.3048H76.769C77.27 15.3048 77.4704 15.1378 77.5538 14.6202L77.7542 13.5014C77.8544 13.0004 77.7041 12.8168 77.2032 12.8168H72.344L72.7448 10.5458H76.602C77.103 10.5458 77.3201 10.3788 77.4036 9.86119L77.6039 8.74241C77.6874 8.24147 77.5538 8.07449 77.0529 8.07449H73.1956L73.563 5.92042H78.2552C78.7728 5.92042 78.9732 5.75344 79.0567 5.2525L79.2571 4.13372C79.3572 3.61608 79.207 3.4491 78.6893 3.4491Z" fill="white"/>
<path d="M78.6893 3.4491H71.9767C71.459 3.4491 71.2753 3.61608 71.1751 4.13372L69.3217 14.6202C69.2382 15.1378 69.3717 15.3048 69.8894 15.3048H76.769C77.27 15.3048 77.4704 15.1378 77.5538 14.6202L77.7542 13.5014C77.8544 13.0004 77.7041 12.8168 77.2032 12.8168H72.344L72.7448 10.5458H76.602C77.103 10.5458 77.3201 10.3788 77.4036 9.86119L77.6039 8.74241C77.6874 8.24147 77.5538 8.07449 77.0529 8.07449H73.1956L73.563 5.92042H78.2552C78.7728 5.92042 78.9732 5.75344 79.0567 5.2525L79.2571 4.13372C79.3572 3.61608 79.207 3.4491 78.6893 3.4491Z" fill="white"/>
<path d="M86.5873 2.64759C87.9064 2.64759 89.0252 2.02975 89.6097 0.961072C89.7599 0.643807 89.7098 0.526919 89.426 0.393334L88.5243 0.0426731C88.2571 -0.0408176 88.1235 -0.00742175 87.9398 0.259749C87.7061 0.677203 87.322 0.910977 86.8879 0.910977C86.4537 0.910977 86.1531 0.677203 86.0529 0.259749C85.9695 -0.00742175 85.8526 -0.0575156 85.5019 0.059371L84.5501 0.393334C84.2328 0.510221 84.1327 0.643807 84.1994 0.961072C84.3831 2.02975 85.2848 2.64759 86.5873 2.64759ZM90.5614 3.4491H89.1421C88.7914 3.4491 88.6078 3.54929 88.4241 3.76636L84.5668 8.55873C83.4981 9.91128 83.1141 10.5124 82.3293 11.9652H82.2458C82.9304 10.3454 83.1475 9.82779 83.4814 7.9242L84.1327 4.13372C84.2328 3.61608 84.0826 3.4491 83.5816 3.4491H82.2291C81.7114 3.4491 81.5277 3.61608 81.4276 4.13372L79.5741 14.6202C79.4906 15.1378 79.6242 15.3048 80.1418 15.3048H81.5611C81.8951 15.3048 82.0788 15.2213 82.2792 14.9875L86.1865 10.1117C87.2719 8.75911 87.6059 8.24147 88.374 6.78873H88.4742C87.7896 8.42515 87.5725 8.8927 87.2385 10.8297L86.5539 14.6202C86.4704 15.1378 86.604 15.3048 87.1216 15.3048H88.4742C88.9751 15.3048 89.1755 15.1378 89.2757 14.6202L91.1125 4.13372C91.2127 3.61608 91.0624 3.4491 90.5614 3.4491Z" fill="white"/>
<path d="M86.5873 2.64759C87.9064 2.64759 89.0252 2.02975 89.6097 0.961072C89.7599 0.643807 89.7098 0.526919 89.426 0.393334L88.5243 0.0426731C88.2571 -0.0408176 88.1235 -0.00742175 87.9398 0.259749C87.7061 0.677203 87.322 0.910977 86.8879 0.910977C86.4537 0.910977 86.1531 0.677203 86.0529 0.259749C85.9695 -0.00742175 85.8526 -0.0575156 85.5019 0.059371L84.5501 0.393334C84.2328 0.510221 84.1327 0.643807 84.1994 0.961072C84.3831 2.02975 85.2848 2.64759 86.5873 2.64759ZM90.5614 3.4491H89.1421C88.7914 3.4491 88.6078 3.54929 88.4241 3.76636L84.5668 8.55873C83.4981 9.91128 83.1141 10.5124 82.3293 11.9652H82.2458C82.9304 10.3454 83.1475 9.82779 83.4814 7.9242L84.1327 4.13372C84.2328 3.61608 84.0826 3.4491 83.5816 3.4491H82.2291C81.7114 3.4491 81.5277 3.61608 81.4276 4.13372L79.5741 14.6202C79.4906 15.1378 79.6242 15.3048 80.1418 15.3048H81.5611C81.8951 15.3048 82.0788 15.2213 82.2792 14.9875L86.1865 10.1117C87.2719 8.75911 87.6059 8.24147 88.374 6.78873H88.4742C87.7896 8.42515 87.5725 8.8927 87.2385 10.8297L86.5539 14.6202C86.4704 15.1378 86.604 15.3048 87.1216 15.3048H88.4742C88.9751 15.3048 89.1755 15.1378 89.2757 14.6202L91.1125 4.13372C91.2127 3.61608 91.0624 3.4491 90.5614 3.4491Z" fill="white"/>
<path d="M101.6 3.4491H93.6519C93.151 3.4491 92.9506 3.61608 92.8504 4.13372L92.6667 5.2525C92.5665 5.75344 92.7168 5.92042 93.2178 5.92042H95.8394L94.3031 14.6202C94.2196 15.1378 94.3532 15.3048 94.8542 15.3048H96.2067C96.7244 15.3048 96.9247 15.1378 97.0082 14.6202L98.5445 5.92042H101.166C101.667 5.92042 101.867 5.75344 101.968 5.2525L102.151 4.13372C102.251 3.61608 102.101 3.4491 101.6 3.4491Z" fill="white"/>
<path d="M101.6 3.4491H93.6519C93.151 3.4491 92.9506 3.61608 92.8504 4.13372L92.6667 5.2525C92.5665 5.75344 92.7168 5.92042 93.2178 5.92042H95.8394L94.3031 14.6202C94.2196 15.1378 94.3532 15.3048 94.8542 15.3048H96.2067C96.7244 15.3048 96.9247 15.1378 97.0082 14.6202L98.5445 5.92042H101.166C101.667 5.92042 101.867 5.75344 101.968 5.2525L102.151 4.13372C102.251 3.61608 102.101 3.4491 101.6 3.4491Z" fill="white"/>
<path d="M113.039 3.4491H111.62C111.269 3.4491 111.086 3.54929 110.902 3.76636L107.045 8.55873C105.976 9.91128 105.592 10.5124 104.807 11.9652H104.724C105.408 10.3454 105.625 9.82779 105.959 7.9242L106.611 4.13372C106.711 3.61608 106.56 3.4491 106.06 3.4491H104.707C104.189 3.4491 104.006 3.61608 103.905 4.13372L102.052 14.6202C101.969 15.1378 102.102 15.3048 102.62 15.3048H104.039C104.373 15.3048 104.557 15.2213 104.757 14.9875L108.664 10.1117C109.75 8.75911 110.084 8.24147 110.852 6.78873H110.952C110.267 8.42515 110.05 8.8927 109.716 10.8297L109.032 14.6202C108.948 15.1378 109.082 15.3048 109.6 15.3048H110.952C111.453 15.3048 111.653 15.1378 111.754 14.6202L113.59 4.13372C113.691 3.61608 113.54 3.4491 113.039 3.4491Z" fill="white"/>
<path d="M113.039 3.4491H111.62C111.269 3.4491 111.086 3.54929 110.902 3.76636L107.045 8.55873C105.976 9.91128 105.592 10.5124 104.807 11.9652H104.724C105.408 10.3454 105.625 9.82779 105.959 7.9242L106.611 4.13372C106.711 3.61608 106.56 3.4491 106.06 3.4491H104.707C104.189 3.4491 104.006 3.61608 103.905 4.13372L102.052 14.6202C101.969 15.1378 102.102 15.3048 102.62 15.3048H104.039C104.373 15.3048 104.557 15.2213 104.757 14.9875L108.664 10.1117C109.75 8.75911 110.084 8.24147 110.852 6.78873H110.952C110.267 8.42515 110.05 8.8927 109.716 10.8297L109.032 14.6202C108.948 15.1378 109.082 15.3048 109.6 15.3048H110.952C111.453 15.3048 111.653 15.1378 111.754 14.6202L113.59 4.13372C113.691 3.61608 113.54 3.4491 113.039 3.4491Z" fill="white"/>
<path d="M125.08 3.4491H123.728C123.21 3.4491 123.026 3.61608 122.926 4.13372L122.241 8.05779H118.2L118.885 4.13372C118.985 3.61608 118.835 3.4491 118.334 3.4491H116.981C116.481 3.4491 116.28 3.61608 116.18 4.13372L114.326 14.6202C114.243 15.1378 114.377 15.3048 114.894 15.3048H116.247C116.748 15.3048 116.948 15.1378 117.048 14.6202L117.766 10.5458H121.791L121.072 14.6202C120.989 15.1378 121.123 15.3048 121.64 15.3048H122.993C123.494 15.3048 123.694 15.1378 123.778 14.6202L125.631 4.13372C125.731 3.61608 125.581 3.4491 125.08 3.4491Z" fill="white"/>
<path d="M125.08 3.4491H123.728C123.21 3.4491 123.026 3.61608 122.926 4.13372L122.241 8.05779H118.2L118.885 4.13372C118.985 3.61608 118.835 3.4491 118.334 3.4491H116.981C116.481 3.4491 116.28 3.61608 116.18 4.13372L114.326 14.6202C114.243 15.1378 114.377 15.3048 114.894 15.3048H116.247C116.748 15.3048 116.948 15.1378 117.048 14.6202L117.766 10.5458H121.791L121.072 14.6202C120.989 15.1378 121.123 15.3048 121.64 15.3048H122.993C123.494 15.3048 123.694 15.1378 123.778 14.6202L125.631 4.13372C125.731 3.61608 125.581 3.4491 125.08 3.4491Z" fill="white"/>
<path d="M135.189 3.4491H129.028C128.51 3.4491 128.326 3.61608 128.226 4.13372L126.373 14.6202C126.289 15.1378 126.423 15.3048 126.94 15.3048H128.293C128.794 15.3048 128.994 15.1378 129.078 14.6202L130.614 5.92042H134.755C135.273 5.92042 135.473 5.75344 135.557 5.2525L135.757 4.13372C135.857 3.61608 135.707 3.4491 135.189 3.4491Z" fill="white"/>
<path d="M135.189 3.4491H129.028C128.51 3.4491 128.326 3.61608 128.226 4.13372L126.373 14.6202C126.289 15.1378 126.423 15.3048 126.94 15.3048H128.293C128.794 15.3048 128.994 15.1378 129.078 14.6202L130.614 5.92042H134.755C135.273 5.92042 135.473 5.75344 135.557 5.2525L135.757 4.13372C135.857 3.61608 135.707 3.4491 135.189 3.4491Z" fill="white"/>
<path d="M65.3105 17.8938H58.2471C57.7462 17.8938 57.5458 18.0608 57.4456 18.5785L55.5921 29.0983C55.5086 29.5992 55.6589 29.7495 56.1432 29.7495H60.9689C63.2733 29.7495 64.9264 28.4471 65.3272 26.1427C65.7613 23.805 64.3921 22.2521 62.071 22.2521H59.4995L59.8502 20.3151H64.8763C65.394 20.3151 65.5943 20.1314 65.6778 19.6304L65.8615 18.5785C65.9617 18.0608 65.8114 17.8938 65.3105 17.8938ZM62.5553 26.0091C62.4217 26.794 61.8205 27.3283 60.9355 27.3283H58.6145L59.0821 24.6733H61.4031C62.2881 24.6733 62.7056 25.2076 62.5553 26.0091Z" fill="white"/>
<path d="M65.3105 17.8938H58.2471C57.7462 17.8938 57.5458 18.0608 57.4456 18.5785L55.5921 29.0983C55.5086 29.5992 55.6589 29.7495 56.1432 29.7495H60.9689C63.2733 29.7495 64.9264 28.4471 65.3272 26.1427C65.7613 23.805 64.3921 22.2521 62.071 22.2521H59.4995L59.8502 20.3151H64.8763C65.394 20.3151 65.5943 20.1314 65.6778 19.6304L65.8615 18.5785C65.9617 18.0608 65.8114 17.8938 65.3105 17.8938ZM62.5553 26.0091C62.4217 26.794 61.8205 27.3283 60.9355 27.3283H58.6145L59.0821 24.6733H61.4031C62.2881 24.6733 62.7056 25.2076 62.5553 26.0091Z" fill="white"/>
<path d="M77.5121 17.8938H76.026C75.2579 17.8938 75.141 17.9105 74.807 18.495L72.0017 23.1538L70.5824 18.495C70.4154 17.9105 70.215 17.8938 69.4302 17.8938H68.0276C67.5433 17.8938 67.4264 18.161 67.56 18.5785L70.048 26.2262L68.1778 29.0649C67.9274 29.4657 67.9107 29.7495 68.3949 29.7495H69.9979C70.716 29.7495 70.9163 29.6493 71.2169 29.1484L77.7459 18.5785C77.9797 18.161 77.9964 17.8938 77.5121 17.8938Z" fill="white"/>
<path d="M77.5121 17.8938H76.026C75.2579 17.8938 75.141 17.9105 74.807 18.495L72.0017 23.1538L70.5824 18.495C70.4154 17.9105 70.215 17.8938 69.4302 17.8938H68.0276C67.5433 17.8938 67.4264 18.161 67.56 18.5785L70.048 26.2262L68.1778 29.0649C67.9274 29.4657 67.9107 29.7495 68.3949 29.7495H69.9979C70.716 29.7495 70.9163 29.6493 71.2169 29.1484L77.7459 18.5785C77.9797 18.161 77.9964 17.8938 77.5121 17.8938Z" fill="white"/>
<path d="M87.0475 29.0315L85.6282 24.9572C85.3443 24.1389 85.0104 23.638 84.3591 23.2706L88.7174 18.5618C89.0179 18.2111 88.9511 17.8938 88.4836 17.8938H87.0142C86.2126 17.8938 86.029 17.9773 85.5948 18.4616L81.9379 22.5192H81.4871L82.1884 18.5785C82.2886 18.0608 82.1383 17.8938 81.6373 17.8938H80.2848C79.7672 17.8938 79.5835 18.0608 79.4833 18.5785L77.6298 29.0649C77.5463 29.5825 77.6799 29.7495 78.1975 29.7495H79.5501C80.051 29.7495 80.2514 29.5825 80.3349 29.0649L81.0696 24.9572H81.5038C82.4556 24.9572 82.7227 25.1909 82.9732 25.959L83.9751 29.1317C84.1421 29.6493 84.3758 29.7495 85.2274 29.7495H86.5633C87.0642 29.7495 87.1978 29.4323 87.0475 29.0315Z" fill="white"/>
<path d="M87.0475 29.0315L85.6282 24.9572C85.3443 24.1389 85.0104 23.638 84.3591 23.2706L88.7174 18.5618C89.0179 18.2111 88.9511 17.8938 88.4836 17.8938H87.0142C86.2126 17.8938 86.029 17.9773 85.5948 18.4616L81.9379 22.5192H81.4871L82.1884 18.5785C82.2886 18.0608 82.1383 17.8938 81.6373 17.8938H80.2848C79.7672 17.8938 79.5835 18.0608 79.4833 18.5785L77.6298 29.0649C77.5463 29.5825 77.6799 29.7495 78.1975 29.7495H79.5501C80.051 29.7495 80.2514 29.5825 80.3349 29.0649L81.0696 24.9572H81.5038C82.4556 24.9572 82.7227 25.1909 82.9732 25.959L83.9751 29.1317C84.1421 29.6493 84.3758 29.7495 85.2274 29.7495H86.5633C87.0642 29.7495 87.1978 29.4323 87.0475 29.0315Z" fill="white"/>
<path d="M101.736 17.8938H100.533C99.9991 17.8938 99.8488 17.9773 99.5482 18.4115L95.4739 24.0555L93.4033 18.3948C93.253 17.994 93.1027 17.8938 92.535 17.8938H91.483C90.982 17.8938 90.7817 18.0608 90.6815 18.5618L88.828 29.0816C88.7445 29.5825 88.8781 29.7495 89.3957 29.7495H90.6648C91.1824 29.7495 91.3828 29.5825 91.4663 29.0816L92.1342 25.3078C92.3346 24.189 92.3847 23.2372 92.2845 21.534H92.4181C92.5684 22.753 92.7687 23.7382 93.1194 24.6399L93.9543 26.7606C94.0879 27.1446 94.2215 27.2448 94.6222 27.2448H95.3069C95.7243 27.2448 95.908 27.1112 96.1585 26.7606L97.6947 24.6399C98.3626 23.7382 99.0306 22.6695 99.5816 21.534H99.7152C99.0139 23.1705 98.6799 24.2725 98.5129 25.2911L97.845 29.0816C97.7448 29.5825 97.8951 29.7495 98.396 29.7495H99.6484C100.149 29.7495 100.366 29.5825 100.45 29.0816L102.303 18.5618C102.404 18.0608 102.253 17.8938 101.736 17.8938Z" fill="white"/>
<path d="M101.736 17.8938H100.533C99.9991 17.8938 99.8488 17.9773 99.5482 18.4115L95.4739 24.0555L93.4033 18.3948C93.253 17.994 93.1027 17.8938 92.535 17.8938H91.483C90.982 17.8938 90.7817 18.0608 90.6815 18.5618L88.828 29.0816C88.7445 29.5825 88.8781 29.7495 89.3957 29.7495H90.6648C91.1824 29.7495 91.3828 29.5825 91.4663 29.0816L92.1342 25.3078C92.3346 24.189 92.3847 23.2372 92.2845 21.534H92.4181C92.5684 22.753 92.7687 23.7382 93.1194 24.6399L93.9543 26.7606C94.0879 27.1446 94.2215 27.2448 94.6222 27.2448H95.3069C95.7243 27.2448 95.908 27.1112 96.1585 26.7606L97.6947 24.6399C98.3626 23.7382 99.0306 22.6695 99.5816 21.534H99.7152C99.0139 23.1705 98.6799 24.2725 98.5129 25.2911L97.845 29.0816C97.7448 29.5825 97.8951 29.7495 98.396 29.7495H99.6484C100.149 29.7495 100.366 29.5825 100.45 29.0816L102.303 18.5618C102.404 18.0608 102.253 17.8938 101.736 17.8938Z" fill="white"/>
<path d="M112.394 17.8938H105.682C105.164 17.8938 104.98 18.0608 104.88 18.5785L103.027 29.0649C102.943 29.5825 103.077 29.7495 103.594 29.7495H110.474C110.975 29.7495 111.175 29.5825 111.259 29.0649L111.459 27.9461C111.559 27.4452 111.409 27.2615 110.908 27.2615H106.049L106.45 24.9906H110.307C110.808 24.9906 111.025 24.8236 111.109 24.3059L111.309 23.1872C111.392 22.6862 111.259 22.5192 110.758 22.5192H106.901L107.268 20.3652H111.96C112.478 20.3652 112.678 20.1982 112.762 19.6972L112.962 18.5785C113.062 18.0608 112.912 17.8938 112.394 17.8938Z" fill="white"/>
<path d="M112.394 17.8938H105.682C105.164 17.8938 104.98 18.0608 104.88 18.5785L103.027 29.0649C102.943 29.5825 103.077 29.7495 103.594 29.7495H110.474C110.975 29.7495 111.175 29.5825 111.259 29.0649L111.459 27.9461C111.559 27.4452 111.409 27.2615 110.908 27.2615H106.049L106.45 24.9906H110.307C110.808 24.9906 111.025 24.8236 111.109 24.3059L111.309 23.1872C111.392 22.6862 111.259 22.5192 110.758 22.5192H106.901L107.268 20.3652H111.96C112.478 20.3652 112.678 20.1982 112.762 19.6972L112.962 18.5785C113.062 18.0608 112.912 17.8938 112.394 17.8938Z" fill="white"/>
<path d="M122.697 29.0315L121.277 24.9572C120.994 24.1389 120.66 23.638 120.008 23.2706L124.367 18.5618C124.667 18.2111 124.6 17.8938 124.133 17.8938H122.663C121.862 17.8938 121.678 17.9773 121.244 18.4616L117.587 22.5192H117.136L117.838 18.5785C117.938 18.0608 117.788 17.8938 117.287 17.8938H115.934C115.416 17.8938 115.233 18.0608 115.133 18.5785L113.279 29.0649C113.196 29.5825 113.329 29.7495 113.847 29.7495H115.199C115.7 29.7495 115.901 29.5825 115.984 29.0649L116.719 24.9572H117.153C118.105 24.9572 118.372 25.1909 118.622 25.959L119.624 29.1317C119.791 29.6493 120.025 29.7495 120.877 29.7495H122.213C122.714 29.7495 122.847 29.4323 122.697 29.0315Z" fill="white"/>
<path d="M122.697 29.0315L121.277 24.9572C120.994 24.1389 120.66 23.638 120.008 23.2706L124.367 18.5618C124.667 18.2111 124.6 17.8938 124.133 17.8938H122.663C121.862 17.8938 121.678 17.9773 121.244 18.4616L117.587 22.5192H117.136L117.838 18.5785C117.938 18.0608 117.788 17.8938 117.287 17.8938H115.934C115.416 17.8938 115.233 18.0608 115.133 18.5785L113.279 29.0649C113.196 29.5825 113.329 29.7495 113.847 29.7495H115.199C115.7 29.7495 115.901 29.5825 115.984 29.0649L116.719 24.9572H117.153C118.105 24.9572 118.372 25.1909 118.622 25.959L119.624 29.1317C119.791 29.6493 120.025 29.7495 120.877 29.7495H122.213C122.714 29.7495 122.847 29.4323 122.697 29.0315Z" fill="white"/>
<path d="M133.845 17.8938H127.132C126.615 17.8938 126.431 18.0608 126.331 18.5785L124.477 29.0649C124.394 29.5825 124.527 29.7495 125.045 29.7495H131.925C132.426 29.7495 132.626 29.5825 132.709 29.0649L132.91 27.9461C133.01 27.4452 132.86 27.2615 132.359 27.2615H127.5L127.9 24.9906H131.758C132.259 24.9906 132.476 24.8236 132.559 24.3059L132.76 23.1872C132.843 22.6862 132.709 22.5192 132.208 22.5192H128.351L128.719 20.3652H133.411C133.928 20.3652 134.129 20.1982 134.212 19.6972L134.413 18.5785C134.513 18.0608 134.363 17.8938 133.845 17.8938Z" fill="white"/>
<path d="M133.845 17.8938H127.132C126.615 17.8938 126.431 18.0608 126.331 18.5785L124.477 29.0649C124.394 29.5825 124.527 29.7495 125.045 29.7495H131.925C132.426 29.7495 132.626 29.5825 132.709 29.0649L132.91 27.9461C133.01 27.4452 132.86 27.2615 132.359 27.2615H127.5L127.9 24.9906H131.758C132.259 24.9906 132.476 24.8236 132.559 24.3059L132.76 23.1872C132.843 22.6862 132.709 22.5192 132.208 22.5192H128.351L128.719 20.3652H133.411C133.928 20.3652 134.129 20.1982 134.212 19.6972L134.413 18.5785C134.513 18.0608 134.363 17.8938 133.845 17.8938Z" fill="white"/>
<path d="M141.843 17.8938H137.385C136.867 17.8938 136.683 18.0608 136.583 18.5785L134.73 29.0649C134.646 29.5825 134.78 29.7495 135.297 29.7495H136.65C137.151 29.7495 137.351 29.5825 137.435 29.0649L138.002 25.8923H140.457C142.962 25.8923 144.749 24.6232 145.199 22.1185C145.634 19.6137 144.348 17.8938 141.843 17.8938ZM140.607 23.4042H138.437L138.971 20.3652H141.142C142.11 20.3652 142.594 20.9496 142.427 21.9014C142.261 22.8532 141.576 23.4042 140.607 23.4042Z" fill="white"/>
<path d="M141.843 17.8938H137.385C136.867 17.8938 136.683 18.0608 136.583 18.5785L134.73 29.0649C134.646 29.5825 134.78 29.7495 135.297 29.7495H136.65C137.151 29.7495 137.351 29.5825 137.435 29.0649L138.002 25.8923H140.457C142.962 25.8923 144.749 24.6232 145.199 22.1185C145.634 19.6137 144.348 17.8938 141.843 17.8938ZM140.607 23.4042H138.437L138.971 20.3652H141.142C142.11 20.3652 142.594 20.9496 142.427 21.9014C142.261 22.8532 141.576 23.4042 140.607 23.4042Z" fill="white"/>
<path d="M146.847 21.9849L146.246 25.3746C145.778 28.1465 147.264 30 150.42 30C153.593 30 155.563 28.4805 156.047 25.7086L156.648 22.3188C157.116 19.547 155.647 17.6434 152.474 17.6434C149.318 17.6434 147.331 19.213 146.847 21.9849ZM153.993 22.0851L153.376 25.5583C153.142 26.8607 152.223 27.512 150.804 27.512C149.401 27.512 148.7 26.8607 148.934 25.5583L149.552 22.0851C149.769 20.7826 150.704 20.1314 152.107 20.1314C153.526 20.1314 154.211 20.7826 153.993 22.0851Z" fill="white"/>
<path d="M146.847 21.9849L146.246 25.3746C145.778 28.1465 147.264 30 150.42 30C153.593 30 155.563 28.4805 156.047 25.7086L156.648 22.3188C157.116 19.547 155.647 17.6434 152.474 17.6434C149.318 17.6434 147.331 19.213 146.847 21.9849ZM153.993 22.0851L153.376 25.5583C153.142 26.8607 152.223 27.512 150.804 27.512C149.401 27.512 148.7 26.8607 148.934 25.5583L149.552 22.0851C149.769 20.7826 150.704 20.1314 152.107 20.1314C153.526 20.1314 154.211 20.7826 153.993 22.0851Z" fill="white"/>
<path d="M165.028 17.8938H160.335C159.818 17.8938 159.634 18.0608 159.534 18.5785L157.68 29.0649C157.597 29.5825 157.731 29.7495 158.248 29.7495H163.024C165.278 29.7495 167.132 28.7142 167.516 26.5769C167.766 25.1074 167.365 24.0221 166.414 23.5879L166.43 23.5211C167.349 22.9534 167.8 22.3022 168.017 21.1667C168.367 19.2631 167.249 17.8938 165.028 17.8938ZM165.195 21.4338C165.061 22.2187 164.577 22.5693 163.792 22.5693H161.538L161.939 20.2984H164.193C164.978 20.2984 165.328 20.6657 165.195 21.4338ZM164.727 26.1427C164.577 26.9609 164.093 27.345 163.258 27.345H160.703L161.137 24.9238H163.692C164.51 24.9238 164.861 25.3412 164.727 26.1427Z" fill="white"/>
<path d="M165.028 17.8938H160.335C159.818 17.8938 159.634 18.0608 159.534 18.5785L157.68 29.0649C157.597 29.5825 157.731 29.7495 158.248 29.7495H163.024C165.278 29.7495 167.132 28.7142 167.516 26.5769C167.766 25.1074 167.365 24.0221 166.414 23.5879L166.43 23.5211C167.349 22.9534 167.8 22.3022 168.017 21.1667C168.367 19.2631 167.249 17.8938 165.028 17.8938ZM165.195 21.4338C165.061 22.2187 164.577 22.5693 163.792 22.5693H161.538L161.939 20.2984H164.193C164.978 20.2984 165.328 20.6657 165.195 21.4338ZM164.727 26.1427C164.577 26.9609 164.093 27.345 163.258 27.345H160.703L161.137 24.9238H163.692C164.51 24.9238 164.861 25.3412 164.727 26.1427Z" fill="white"/>
<path fill-rule="evenodd" clip-rule="evenodd" d="M16.2664 3.44897H6.03626C4.85015 3.44897 4.40536 3.8567 4.18297 5.00574L1.41049 20.7837C1.31082 21.3509 1.74724 21.8707 2.32315 21.8707H13.0788C18.861 21.8707 23.0495 19.1278 24.0873 13.2714C25.0881 7.37795 22.0487 3.44897 16.2664 3.44897ZM9.70574 15.3842H13.3382C15.0803 15.3842 16.3035 14.3093 16.6 12.6784C16.8965 11.0475 16.0811 9.93549 14.3019 9.93549H10.6695L9.70574 15.3842Z" fill="white"/>
<path d="M0.550141 25.6429C0.675764 24.935 1.29107 24.4193 2.00996 24.4193H7.03245C7.60901 24.4193 8.04559 24.9402 7.94484 25.5079L7.40921 28.5259C7.28359 29.2337 6.66828 29.7495 5.94939 29.7495H0.926902C0.350347 29.7495 -0.0862367 29.2286 0.0145138 28.6609L0.550141 25.6429Z" fill="white"/>
<path d="M28.2012 4.67252C28.3268 3.9647 28.9421 3.44897 29.661 3.44897H46.0812C46.6578 3.44897 47.0944 3.96986 46.9936 4.53755L46.458 7.55557C46.3324 8.2634 45.7171 8.77912 44.9982 8.77912H28.578C28.0014 8.77912 27.5648 8.25823 27.6656 7.69055L28.2012 4.67252Z" fill="white"/>
<path fill-rule="evenodd" clip-rule="evenodd" d="M38.8393 11.3277H28.6091C27.423 11.3277 26.9783 11.7354 26.7559 12.8844L23.9834 28.6624C23.8837 29.2296 24.3201 29.7494 24.896 29.7494H35.6517C41.4339 29.7494 45.6224 27.0065 46.6602 21.1501C47.661 15.2566 44.6216 11.3277 38.8393 11.3277ZM32.2602 23.2629H35.8926C37.6347 23.2629 38.8579 22.188 39.1544 20.5571C39.4509 18.9262 38.6355 17.8142 36.8563 17.8142H33.2239L32.2602 23.2629Z" fill="white"/>
</svg>
